<svg viewBox="0 0 512 512" xmlns="http://www.w3.org/2000/svg" xmlns:xlink="http://www.w3.org/1999/xlink"><linearGradient id="a" gradientTransform="matrix(1 0 0 -1 0 -22278)" gradientUnits="userSpaceOnUse" x1="0" x2="512" y1="-22534" y2="-22534"><stop offset="0" stop-color="#00f1ff"/><stop offset=".231" stop-color="#00d8ff"/><stop offset=".5138" stop-color="#00c0ff"/><stop offset=".7773" stop-color="#00b2ff"/><stop offset="1" stop-color="#00adff"/></linearGradient><path d="m512 256c0 141.386719-114.613281 256-256 256s-256-114.613281-256-256 114.613281-256 256-256 256 114.613281 256 256zm0 0" fill="url(#a)"/><g fill="#fff"><path d="m279.050781 385.15625c0 13.128906-10.640625 23.773438-23.769531 23.773438s-23.773438-10.644532-23.773438-23.773438 10.644532-23.769531 23.773438-23.769531 23.769531 10.640625 23.769531 23.769531zm0 0"/><path d="m85.996094 209.265625c-3.660156 0-7.332032-1.332031-10.222656-4.027344-6.058594-5.644531-6.394532-15.136719-.746094-21.199219 47.460937-50.921874 111.730468-78.964843 180.96875-78.964843 69.246094 0 133.515625 28.042969 180.976562 78.964843 5.648438 6.0625 5.3125 15.554688-.746094 21.199219-6.058593 5.652344-15.550781 5.316407-21.199218-.742187-41.726563-44.769532-98.203125-69.421875-159.023438-69.421875-60.832031 0-117.304687 24.652343-159.03125 69.421875-2.953125 3.167968-6.960937 4.769531-10.976562 4.769531zm0 0"/><path d="m138.582031 269.089844c-3.820312 0-7.640625-1.449219-10.566406-4.355469-5.878906-5.832031-5.914063-15.332031-.082031-21.210937 35.101562-35.375 80.582031-54.859376 128.0625-54.859376 47.472656 0 92.953125 19.480469 128.0625 54.859376 5.835937 5.878906 5.800781 15.375-.078125 21.210937-5.882813 5.835937-15.378907 5.800781-21.214844-.078125-29.433594-29.660156-67.351563-45.992188-106.769531-45.992188-39.421875 0-77.339844 16.332032-106.765625 45.988282-2.933594 2.957031-6.789063 4.4375-10.648438 4.4375zm0 0"/><path d="m315.84375 328.84375c-3.816406 0-7.632812-1.445312-10.558594-4.34375-13.234375-13.113281-32.636718-21.589844-49.421875-21.589844-.003906 0-.003906 0-.007812 0h-1.039063c-.003906 0-.007812 0-.007812 0-16.789063 0-36.1875 8.472656-49.425782 21.589844-5.882812 5.828125-15.378906 5.785156-21.210937-.097656-5.832031-5.886719-5.789063-15.382813.097656-21.214844 18.847657-18.675781 45.875-30.277344 70.535157-30.277344h.011718 1.039063.011719c24.660156 0 51.683593 11.601563 70.535156 30.277344 5.882812 5.832031 5.929687 15.328125.097656 21.214844-2.933594 2.957031-6.796875 4.441406-10.65625 4.441406zm0 0"/></g></svg>