<svg id="Capa_1" enable-background="new 0 0 512 512" height="512" viewBox="0 0 512 512" width="512" xmlns="http://www.w3.org/2000/svg"><g><path d="m300.99 319.01v15.18l-44.99 33.25-44.99-33.25v-14.76c11.56 4.38 24.09 6.78 37.18 6.78h14.52c13.51 0 26.42-2.55 38.28-7.2z" fill="#ffe5c2"/><path d="m143.205 67v154.234c0 57.979 47.001 104.98 104.98 104.98h14.522c57.979 0 104.98-47.001 104.98-104.98v-154.234z" fill="#fff3de"/><path d="m143.21 67v154.23c0 57.979 47.001 104.98 104.98 104.98h14.52c7.81 0 15.42-.85 22.74-2.48-47.05-10.38-82.24-52.33-82.24-102.5v-52.525c0-10.183 9.905-17.33 19.617-14.266 13.139 4.145 27.189 6.401 41.593 6.401h21.35c31.29 0 60.08-10.64 81.92-28.17v-65.67z" fill="#ffe5c2"/><g fill="#f5f8f9"><path d="m256 367.444-44.328 33.483-36.112-55.277 21.496-21.709z"/><path d="m256 367.444 44.328 33.483 36.112-55.277-21.496-21.709z"/><path d="m175.56 345.65-48.375 28.563c-22.997 13.579-37.109 38.298-37.109 65.005v72.782h331.849v-72.783c0-26.707-14.111-51.426-37.109-65.005l-48.376-28.562-36.113 55.277-44.327-33.483-44.328 33.482z"/></g><path d="m349.37 353.29-41.171 63.015c-2.217 3.394-6.845 4.2-10.08 1.757l-42.119-31.822-42.12 31.822c-3.235 2.444-7.862 1.637-10.08-1.757l-41.17-63.015 12.93-7.64 36.11 55.28 44.33-33.49 44.33 33.49 36.11-55.28z" fill="#e8edf2"/><path d="m271.57 379.21v18.79l-15.57-11.76-15.57 11.76v-18.79l15.57-11.77z" fill="#5f99d7"/><path d="m175.56 345.65 8.35 12.78-26.73 15.78c-22.99 13.58-37.1 38.3-37.1 65.01v72.711l-30 .069v-72.78c0-26.71 14.11-51.43 37.1-65.01z" fill="#e8edf2"/><path d="m271.574 410.38h-31.148v-31.173l15.574-11.763 15.574 11.763z" fill="#60b7ff"/><path d="m271.57 379.21v18.79l-15.57-11.76-15.57 11.76v-18.79l15.57-11.77z" fill="#5f99d7"/><path d="m232.949 511.91 7.477-101.53h31.148l7.478 101.53z" fill="#8ac9fe"/><path d="m375.673 120.276h-7.985v92.644h7.985c23.928 0 43.325-19.397 43.325-43.325v-5.993c.001-23.929-19.397-43.326-43.325-43.326z" fill="#918291"/><path d="m347.363 288.113h-34.15c-8.284 0-15-6.716-15-15v-2.075c0-8.284 6.716-15 15-15h34.15c8.284 0 15 6.716 15 15v2.075c0 8.285-6.715 15-15 15z" fill="#918291"/><path d="m202.533 7.5c-32.36 0-58.651 25.913-59.297 58.119-18.937.168-34.237 15.564-34.237 34.54v99.22c39.85 0 72.155-32.305 72.155-72.155v-24.586h.068c22.253 17.55 51.886 28.206 83.2 28.206h21.349c31.287 0 60.083-10.646 81.918-28.169 29.067-30.311 35.276-50.575 35.276-80.106v-15.069z" fill="#e19974"/><path d="m245.3 7.5c-32.364 0-58.654 25.917-59.296 58.12-18.935.171-34.235 15.567-34.235 34.534v85.191c-11.964 8.831-26.761 14.038-42.767 14.038v-99.229c0-18.967 15.3-34.363 34.235-34.534.642-32.203 26.933-58.12 59.297-58.12z" fill="#dc8758"/><g><path d="m158.391 425.712c-2.224-3.494-6.859-4.524-10.354-2.3s-4.524 6.859-2.3 10.354l5.135 8.068c3.054 4.799 4.669 10.343 4.669 16.032v46.634c0 4.142 3.358 7.5 7.5 7.5s7.5-3.358 7.5-7.5v-46.633c0-8.547-2.426-16.876-7.015-24.086z"/><path d="m388.629 367.754-47.542-28.07-20.814-21.02c-.168-.17-.343-.329-.523-.48 10.211-6.022 19.461-13.646 27.333-22.571h.28c10.415 0 19.197-7.115 21.749-16.738h11.403c25.355 0 45.983-20.628 45.983-45.983v-63.298-3-2.993c0-28.025-22.8-50.825-50.825-50.825h-.483v-7.118c9.008-9.61 15.903-18.422 21.023-26.869 2.147-3.542 1.017-8.154-2.525-10.302-3.542-2.147-8.154-1.017-10.302 2.525-4.873 8.039-11.669 16.583-20.77 26.112-21.251 16.909-48.521 26.216-76.847 26.216h-21.35c-28.919 0-56.817-9.442-78.555-26.588-1.323-1.043-3.03-1.611-4.715-1.611-4.142 0-7.5 3.358-7.5 7.5v24.58c0 17.271-6.724 33.507-18.933 45.716-4.474 4.474-9.535 8.245-15.058 11.217-.013.007-.026.014-.039.021-6.833 3.692-14.224 6.092-21.958 7.131-.386.051-.774.099-1.162.144v-91.29c0-14.762 12.016-26.892 26.74-27.04 4.1 0 7.431-3.3 7.499-7.383.58-27.978 23.807-50.737 51.792-50.737h192.93v7.57c0 7.168-.375 13.063-1.18 18.551-.602 4.099 2.233 7.908 6.332 8.509 4.097.6 7.908-2.233 8.509-6.332.901-6.142 1.339-12.923 1.339-20.729v-15.069c0-4.142-3.358-7.5-7.5-7.5h-200.43c-17.612 0-34.229 6.792-46.791 19.125-10.934 10.734-17.733 24.619-19.532 39.642-19.671 3.504-34.707 20.802-34.707 41.393v99.22c0 4.142 3.358 7.5 7.5 7.5 3.539 0 7.118-.237 10.649-.707 5.517-.741 10.883-2.061 16.061-3.905v18.962c0 9.485 1.179 18.89 3.505 27.954.869 3.387 3.917 5.638 7.259 5.638.617 0 1.245-.077 1.87-.237 4.012-1.03 6.43-5.117 5.4-9.129-2.014-7.847-3.035-15.998-3.035-24.226v-26.153c5.281-3.248 10.186-7.107 14.613-11.534 15.042-15.042 23.327-35.045 23.327-56.323v-10.213c22.209 13.833 48.609 21.333 75.77 21.333h21.35c26.714 0 52.629-7.433 74.42-21.145v3.042c0 .013-.002.026-.002.039v92.644c0 .013.002.026.002.039v8.272c0 9.932-1.468 19.637-4.37 28.964-2.613-1.064-5.466-1.655-8.456-1.655h-34.15c-12.407 0-22.5 10.093-22.5 22.5v2.075c0 12.407 10.093 22.5 22.5 22.5h12.48c-8.113 6.872-17.318 12.418-27.23 16.331-11.7 4.122-23.232 6.766-35.753 6.766h-14.52c-11.753 0-23.539-2.109-34.525-6.294-18.884-7.146-34.878-19.806-46.253-36.61-2.323-3.431-6.986-4.329-10.415-2.007-3.43 2.322-4.329 6.985-2.007 10.416 9.65 14.255 22.194 25.914 36.822 34.371-.028.027-.057.05-.084.078l-20.814 21.02-47.541 28.07c-25.164 14.857-40.795 42.24-40.795 71.463v65.281c0 4.142 3.358 7.5 7.5 7.5s7.5-3.358 7.5-7.5v-65.283c0-23.941 12.806-46.375 33.421-58.546l42.204-24.919 32.193 49.277c1.136 1.74 2.944 2.93 4.991 3.287 2.033.348 3.97-.12 5.809-1.404l16.733-12.639v15.894l-6.905 93.712c-.305 4.131 2.797 7.727 6.928 8.031.188.014.374.021.559.021 3.892 0 7.181-3.006 7.472-6.949l6.418-87.102h17.206l1.137 15.383c.305 4.13 3.898 7.233 8.032 6.927 4.131-.305 7.232-3.901 6.927-8.032l-1.625-21.993v-15.891l16.733 12.639c1.311.99 2.9 1.515 4.521 1.515 2.483-.009 4.576-1.141 6.279-3.398l32.193-49.277 42.204 24.919c20.615 12.171 33.421 34.605 33.421 58.546v65.282c0 4.142 3.358 7.5 7.5 7.5s7.5-3.358 7.5-7.5v-65.283c-.005-29.223-15.637-56.606-40.8-71.463zm-8.113-103.879h-11.828c-.271-.804-.584-1.587-.94-2.348 4.935-12.845 7.443-26.381 7.443-40.297v-.811h.483c13.964 0 26.63-5.663 35.825-14.811v27.284c0 17.084-13.899 30.983-30.983 30.983zm-4.843-136.099c19.754 0 35.825 16.071 35.825 35.825v2.993 3c0 19.754-16.071 35.825-35.825 35.825h-.483v-77.644h.483zm-69.96 145.337v-2.075c0-4.136 3.364-7.5 7.5-7.5h34.15c4.136 0 7.5 3.364 7.5 7.5v2.075c0 4.136-3.364 7.5-7.5 7.5h-3.641c-.056-.001-.112-.001-.169 0h-30.341c-4.134 0-7.499-3.364-7.499-7.5zm-80.559 58.231c7.55 1.611 15.319 2.366 23.036 2.366h14.52c10.657 0 21.374-1.476 31.6-4.504l.152-.045c.446-.128.885-.26 1.311-.393l-39.773 29.355-39.051-28.822c.299.087.596.179.896.263 2.473.69 4.948 1.292 7.309 1.78zm-11.594 58.759-28.407-43.482 12.668-12.793 45.643 33.687-7.558 5.708c-.005.004-.009.008-.014.012zm50.514 12.777h-16.148v-19.937l8.074-6.099 8.074 6.099zm34.366-12.777-22.332-16.869c-.005-.004-.009-.008-.014-.012l-7.558-5.708 45.643-33.687 12.668 12.793z"/><path d="m363.963 423.412c-3.494-2.224-8.131-1.195-10.354 2.3l-5.135 8.068c-4.589 7.21-7.015 15.539-7.015 24.086v46.634c0 4.142 3.358 7.5 7.5 7.5s7.5-3.358 7.5-7.5v-46.633c0-5.689 1.615-11.233 4.669-16.032l5.135-8.068c2.224-3.496 1.195-8.131-2.3-10.355z"/><path d="m283.1 464.838c-.304-4.131-3.897-7.237-8.031-6.928-4.131.305-7.232 3.9-6.928 8.031l2.88 39.04c.291 3.943 3.58 6.949 7.472 6.949.185 0 .372-.007.56-.021 4.131-.305 7.232-3.9 6.928-8.031z"/><path d="m255.667 268.433c.099 0 .2 0 .299-.001 14.045-.091 26.723-6.711 33.913-17.709 2.267-3.467 1.293-8.115-2.173-10.381-3.465-2.266-8.114-1.294-10.381 2.173-4.432 6.778-12.452 10.859-21.455 10.917-9.35.089-17.682-4.051-22.353-10.998-2.311-3.437-6.973-4.351-10.409-2.04-3.438 2.311-4.351 6.971-2.04 10.409 7.432 11.055 20.349 17.63 34.599 17.63z"/><path d="m215.102 189.792v-16.037c0-4.142-3.358-7.5-7.5-7.5s-7.5 3.358-7.5 7.5v16.037c0 4.142 3.358 7.5 7.5 7.5s7.5-3.357 7.5-7.5z"/><path d="m303.292 197.292c4.142 0 7.5-3.358 7.5-7.5v-16.037c0-4.142-3.358-7.5-7.5-7.5s-7.5 3.358-7.5 7.5v16.037c0 4.143 3.358 7.5 7.5 7.5z"/></g></g></svg>