<?xml version="1.0" encoding="iso-8859-1"?>
<!-- Generator: Adobe Illustrator 19.0.0, SVG Export Plug-In . SVG Version: 6.00 Build 0)  -->
<svg version="1.1" id="Capa_1" xmlns="http://www.w3.org/2000/svg" xmlns:xlink="http://www.w3.org/1999/xlink" x="0px" y="0px"
	 viewBox="0 0 512 512" style="enable-background:new 0 0 512 512;" xml:space="preserve">
<linearGradient id="SVGID_1_" gradientUnits="userSpaceOnUse" x1="0" y1="257.9999" x2="511.9998" y2="257.9999" gradientTransform="matrix(1 0 0 -1 0 513.9998)">
	<stop  offset="0" style="stop-color:#00F2FE"/>
	<stop  offset="0.021" style="stop-color:#03EFFE"/>
	<stop  offset="0.293" style="stop-color:#24D2FE"/>
	<stop  offset="0.554" style="stop-color:#3CBDFE"/>
	<stop  offset="0.796" style="stop-color:#4AB0FE"/>
	<stop  offset="1" style="stop-color:#4FACFE"/>
</linearGradient>
<path style="fill:url(#SVGID_1_);" d="M255,400.5c18.225,0,33,14.775,33,33s-14.775,33-33,33s-33-14.775-33-33
	S236.774,400.5,255,400.5z M505.636,183.131c8.08-7.531,8.525-20.187,0.995-28.267C440.901,84.341,351.894,45.501,255.996,45.5
	C160.106,45.501,71.099,84.341,5.369,154.864c-7.531,8.08-7.085,20.735,0.995,28.267c8.081,7.53,20.736,7.086,28.267-0.995
	C92.711,119.82,171.326,85.501,256.003,85.5c84.67,0.001,163.286,34.32,221.365,96.636c3.939,4.227,9.28,6.364,14.635,6.364
	C496.887,188.5,501.782,186.722,505.636,183.131z M433.085,265.742c7.84-7.781,7.888-20.444,0.106-28.284
	c-48.586-48.954-111.516-75.913-177.196-75.911C190.3,161.548,127.37,188.508,78.798,237.46c-7.78,7.841-7.73,20.504,0.11,28.284
	c7.841,7.779,20.504,7.73,28.284-0.11c41.005-41.326,93.851-64.086,148.803-64.087c54.938-0.002,107.785,22.759,148.804,64.089
	c3.91,3.939,9.052,5.911,14.196,5.911C424.089,271.547,429.185,269.613,433.085,265.742z M185.15,348.708
	c18.523-18.352,45.68-30.208,69.192-30.208c0.003,0,0.007,0,0.01,0h1.447c0.004,0,0.005,0,0.009,0
	c23.509,0,50.668,11.857,69.189,30.208c7.846,7.773,20.51,7.717,28.284-0.132c7.774-7.847,7.715-20.51-0.131-28.284
	c-26.02-25.779-63.317-41.792-97.339-41.792c-0.004,0-0.011,0-0.015,0h-1.441c-0.006,0-0.009,0-0.015,0
	c-34.023,0-71.323,16.014-97.342,41.792c-7.847,7.774-7.906,20.438-0.131,28.284c3.911,3.947,9.059,5.924,14.208,5.924
	C176.162,354.5,181.251,352.571,185.15,348.708z"/>
<g>
</g>
<g>
</g>
<g>
</g>
<g>
</g>
<g>
</g>
<g>
</g>
<g>
</g>
<g>
</g>
<g>
</g>
<g>
</g>
<g>
</g>
<g>
</g>
<g>
</g>
<g>
</g>
<g>
</g>
</svg>
